# xmcd
#
# Track frame offsets:
#	150
#	13364
#	27588
#	39175
#	52017
#	64950
#	78698
#	87649
#	104274
#	116591
#	130856
#	139448
#	154179
#	170221
#	177127
#	192378
#	203009
#	216708
#
# Disc length: 3013 seconds
#
# Revision: 0
# Processed by: cddbd v1.5.2PL0 Copyright (c) Steve Scherf et al.
# Submitted via: audiograbber 1.83.01
#
DISCID=1a0bc312
DTITLE=Various Artist - Best Of Country Songs Disc
DYEAR=2011
DGENRE=Country
TTITLE0=Gordon Lightfoot - Long Way Back Home
TTITLE1=Conway Twitty - You've Never Been This  Far Before
TTITLE2=The Kendalls - Heaven's Just A Sin Away
TTITLE3=The Oak Ridge Boys - Thank God I'm Reborn
TTITLE4=The Jordanaires - Love Lifted Me
TTITLE5=Mel McDaniel - Baby's Got Her Blue Jeans On
TTITLE6=Sandy Posey - Born A Women
TTITLE7=Lee Greenwood - Ring On Her Finger, Time On her Hands
TTITLE8=Merle Haggard - Everybody's Had The Blues
TTITLE9=T.Graham Brown - Hell And High Water
TTITLE10=Roger Miller - England Swings
TTITLE11=David  Allan Coe - Standing Too Close To The Flame
TTITLE12=Roger Davis and Honky Tonk Union - I Never Thought About It
TTITLE13=Waylon Jennings - It's So Easy ( To Fall In Love)
TTITLE14=Sammy's Saloon - Highway Calling
TTITLE15=Gene Simmons - Way Down Yonder In Baton Rouge
TTITLE16=Eddy Raven - Rip Rap Road
TTITLE17=Johnny Rodriguez - Ridin My Thumb To Mexico
EXTD=
EXTT0=
EXTT1=
EXTT2=
EXTT3=
EXTT4=
EXTT5=
EXTT6=
EXTT7=
EXTT8=
EXTT9=
EXTT10=
EXTT11=
EXTT12=
EXTT13=
EXTT14=
EXTT15=
EXTT16=
EXTT17=
PLAYORDER=
